REM MD5 f5a2a04104f26d4b89728d2129778166
FILE "Euro Demo 11 (France).bin" BINARY
  TRACK 01 MODE2/2352
    INDEX 01 00:00:00
  TRACK 02 AUDIO
    INDEX 00 21:27:54
    INDEX 01 21:29:54
  TRACK 03 AUDIO
    INDEX 00 24:09:53
    INDEX 01 24:11:53
  TRACK 04 AUDIO
    INDEX 00 24:26:54
    INDEX 01 24:28:54
  TRACK 05 AUDIO
    INDEX 00 24:34:46
    INDEX 01 24:36:46
  TRACK 06 AUDIO
    INDEX 00 28:48:19
    INDEX 01 28:50:19
REM LEADOUT 32:07:49
